Coordinates
version=1
nRows=26
nColumns=22
inDegrees=yes

Units are S.I. units (second, meters, Newtons, ...)
If the header above contains a line with 'inDegrees', this indicates whether rotational values are in degrees (yes) or radians (no).

endheader
time	pelvis_tilt	pelvis_list	pelvis_rotation	pelvis_tx	pelvis_ty	pelvis_tz	hip_flexion_r	hip_adduction_r	hip_rotation_r	knee_angle_r	ankle_angle_r	subtalar_angle_r	hip_flexion_l	hip_adduction_l	hip_rotation_l	knee_angle_l	ankle_angle_l	subtalar_angle_l	lumbar_extension	lumbar_bending	lumbar_rotation
      3.34000000	      9.12105922	     -0.93622144	     29.83358500	     -0.25835618	      0.91709040	     -0.71252653	     13.21056815	     13.18383167	    -16.81812304	    -24.06082662	      6.63327675	    -11.73500760	     -2.25406989	    -15.19974819	      4.42380575	    -62.08838073	     -5.87487975	      0.06684296	    -12.63280770	     11.42811411	    -18.29601808
      3.35000000	      9.23353940	     -1.29229627	     29.25482039	     -0.24788979	      0.91812219	     -0.71377250	     12.18372855	     14.00632670	    -16.29339312	    -23.35466783	      6.87612652	    -11.86365789	     -0.24417929	    -15.64646217	      4.90557668	    -63.89033387	     -4.74243878	     -0.98646379	    -12.66957468	     11.57181540	    -17.88712943
      3.36000000	      9.30521759	     -1.62965042	     28.55279577	     -0.23741505	      0.91920878	     -0.71469895	     11.12543046	     14.80695454	    -15.61124838	    -22.58553414	      7.03910977	    -11.95287553	      1.72162470	    -16.03167038	      5.24862510	    -65.39190168	     -3.41572505	     -2.30491203	    -12.68957739	     11.64312904	    -17.42271607
      3.37000000	      9.33181911	     -1.92783248	     27.72205804	     -0.22692871	      0.92036327	     -0.71531811	     10.03123796	     15.55767898	    -14.76330172	    -21.77016804	      7.14700907	    -11.99887109	      3.61062375	    -16.32882619	      5.46343955	    -66.57574491	     -1.93879830	     -3.86346568	    -12.69743554	     11.61952765	    -16.89127168
      3.38000000	      9.31557730	     -2.17531920	     26.75572976	     -0.21643030	      0.92158942	     -0.71566532	      8.89247440	     16.23730089	    -13.75090783	    -20.92117156	      7.21856489	    -12.00424337	      5.39232974	    -16.52979080	      5.54261910	    -67.43231869	     -0.32384599	     -5.59444419	    -12.69395207	     11.49939378	    -16.30730516
      3.39000000	      9.27371438	     -2.36233878	     25.67228895	     -0.20602150	      0.92287638	     -0.71577978	      7.71459617	     16.82783953	    -12.59318513	    -20.08039268	      7.27277368	    -11.97473260	      7.05243478	    -16.62220343	      5.52375391	    -67.97726496	      1.41298588	     -7.40919335	    -12.71394165	     11.29343066	    -15.67579723
      3.40000000	      9.20152588	     -2.49344112	     24.48067979	     -0.19566616	      0.92420546	     -0.71569744	      6.49068197	     17.32195340	    -11.32516576	    -19.22116573	      7.30841059	    -11.92042123	      8.58660387	    -16.62109560	      5.39875311	    -68.20080245	      3.23311255	     -9.17552669	    -12.73315875	     11.00685493	    -15.01395056
      3.41000000	      9.11211390	     -2.57436718	     23.20658595	     -0.18541244	      0.92554805	     -0.71546596	      5.22648436	     17.71878466	     -9.97313059	    -18.35581422	      7.32902140	    -11.85489438	      9.99812995	    -16.53930116	      5.19344921	    -68.11784732	      5.08799200	    -10.79445389	    -12.76253884	     10.66219861	    -14.33788248
      3.42000000	      9.01285568	     -2.61472304	     21.87866269	     -0.17528924	      0.92686555	     -0.71513014	      3.93315253	     18.02180843	     -8.56527682	    -17.48934538	      7.33811581	    -11.79305014	     11.29924298	    -16.39029354	      4.93804471	    -67.74375676	      6.92507816	    -12.20188640	    -12.80263262	     10.28010871	    -13.66826539
      3.43000000	      8.91176145	     -2.62400494	     20.51786888	     -0.16529712	      0.92813360	     -0.71472573	      2.61586030	     18.23823429	     -7.11889867	    -16.62206881	      7.32994187	    -11.74929999	     12.49344311	    -16.19520883	      4.64081302	    -67.08680831	      8.67779669	    -13.35122696	    -12.85418209	      9.87977924	    -13.02193685
      3.44000000	      8.81519469	     -2.61523044	     19.15007914	     -0.15546001	      0.92931065	     -0.71429168	      1.29351717	     18.38020631	     -5.64754948	    -15.77031146	      7.31073995	    -11.73090141	     13.59562490	    -15.96615342	      4.33162252	    -66.16864563	     10.29749395	    -14.31254862	    -12.92135894	      9.48356081	    -12.40200523
      3.45000000	      8.72366876	     -2.59797346	     17.78650780	     -0.14574941	      0.93036361	     -0.71384461	     -0.02387174	     18.45813107	     -4.15664259	    -14.93829817	      7.28084268	    -11.74043644	     14.61333746	    -15.72448271	      4.00019051	    -65.00790407	     11.71710549	    -15.12063654	    -12.99514336	      9.10340391	    -11.83046711
      3.46000000	      8.64464563	     -2.58221567	     16.45516508	     -0.13619853	      0.93126377	     -0.71343412	     -1.31014303	     18.48525154	     -2.69107461	    -14.16381961	      7.26410381	    -11.77658610	     15.55270227	    -15.46726323	      3.68545285	    -63.62074918	     12.95783203	    -15.87155185	    -13.08944854	      8.75865190	    -11.29780346
      3.47000000	      8.56965180	     -2.58094121	     15.14888532	     -0.12675952	      0.93197674	     -0.71303173	     -2.55641426	     18.47976606	     -1.21610914	    -13.44236953	      7.24780747	    -11.82880923	     16.42850052	    -15.22524796	      3.35532560	    -62.02999568	     13.92339694	    -16.46914963	    -13.18738336	      8.45479294	    -10.81058827
      3.48000000	      8.50733014	     -2.59901287	     13.88439172	     -0.11743801	      0.93247509	     -0.71268361	     -3.73584201	     18.44952697	      0.17685627	    -12.83012549	      7.30591154	    -11.90356916	     17.23575617	    -14.99638290	      3.02080427	    -60.25350289	     14.80643394	    -17.10018286	    -13.30055301	      8.20456206	    -10.36408591
      3.49000000	      8.43871327	     -2.64814611	     12.63734825	     -0.10818135	      0.93273986	     -0.71231421	     -4.84244401	     18.41569086	      1.57386810	    -12.30880302	      7.37904097	    -11.96500239	     17.99479170	    -14.80743760	      2.64325872	    -58.30853470	     15.41346324	    -17.48309037	    -13.40488285	      8.00558769	     -9.94694849
      3.50000000	      8.36928729	     -2.72367122	     11.40722687	     -0.09897444	      0.93276584	     -0.71195530	     -5.85927440	     18.37609491	      2.91741455	    -11.92749064	      7.55240700	    -12.02626388	     18.68857288	    -14.65131636	      2.21251129	    -56.20247414	     15.91955502	    -17.78869696	    -13.50919177	      7.85869595	     -9.56447313
      3.51000000	      8.22851130	     -2.86076088	     10.18109770	     -0.08980847	      0.93240588	     -0.71153781	     -6.67991228	     18.36849451	      4.21114725	    -11.73856561	      7.87298812	    -12.04564929	     19.41952218	    -14.56280744	      1.71737227	    -53.97816662	     16.26547516	    -17.89074212	    -13.52489793	      7.77688603	     -9.17155868
      3.52000000	      8.19577941	     -2.95219333	      8.97079466	     -0.08061709	      0.93207938	     -0.71115047	     -7.58686822	     18.31338737	      5.51084849	    -11.62584876	      8.17294090	    -12.12197610	     19.90705523	    -14.43714870	      1.14872412	    -51.55865148	     16.48210279	    -17.92976119	    -13.67763065	      7.68404673	     -8.84627047
      3.53000000	      8.08711281	     -3.08508952	      7.75513588	     -0.07143009	      0.93139899	     -0.71071633	     -8.30307522	     18.28022531	      6.78280270	    -11.70829433	      8.60858897	    -12.18629610	     20.42311838	    -14.35293105	      0.48693666	    -49.04022770	     16.54029412	    -17.74666951	    -13.73686462	      7.63702637	     -8.52125447
      3.54000000	      7.96703830	     -3.21227111	      6.54236437	     -0.06224063	      0.93052305	     -0.71026541	     -8.92514649	     18.23709042	      8.05099138	    -11.95407085	      9.11545455	    -12.27599358	     20.86953805	    -14.25455224	     -0.25871613	    -46.40550130	     16.44089631	    -17.31032347	    -13.78636970	      7.59816150	     -8.22645437
      3.55000000	      7.83194626	     -3.32568306	      5.34113074	     -0.05302023	      0.92945736	     -0.70980764	     -9.45955711	     18.18007938	      9.29586143	    -12.34577826	      9.67422509	    -12.39710563	     21.25440852	    -14.13123107	     -1.10086235	    -43.67334166	     16.18077364	    -16.56605875	    -13.81767776	      7.55730316	     -7.97621089
      3.56000000	      7.67278075	     -3.42323089	      4.15867230	     -0.04376978	      0.92819053	     -0.70934873	     -9.90550018	     18.11035057	     10.50722409	    -12.86158552	     10.27804524	    -12.52027900	     21.59721355	    -13.96879352	     -2.02366025	    -40.87073072	     15.81684765	    -15.57310397	    -13.81677355	      7.51308787	     -7.77387623
      3.57000000	      7.49543009	     -3.49328681	      3.01461417	     -0.03449917	      0.92674017	     -0.70891974	    -10.26709442	     18.02113735	     11.64004035	    -13.49647939	     10.90524125	    -12.63941762	     21.90146245	    -13.74034013	     -3.00480328	    -38.02089047	     15.33922179	    -14.32381616	    -13.79171123	      7.45571834	     -7.63412148
      3.58000000	      7.31822477	     -3.53882302	      1.90764172	     -0.02518829	      0.92513605	     -0.70852697	    -10.58947322	     17.91427962	     12.70792325	    -14.20356499	     11.55135198	    -12.73767129	     22.15149087	    -13.43676788	     -4.00535517	    -35.15640411	     14.82850677	    -12.87472015	    -13.76092659	      7.38970736	     -7.53236989
      3.59000000	      7.11968658	     -3.56318498	      0.86133625	     -0.01585882	      0.92334360	     -0.70821214	    -10.83474648	     17.79520989	     13.64173061	    -14.99276387	     12.20293109	    -12.81115459	     22.39416055	    -13.03940792	     -4.94749471	    -32.32076190	     14.27921174	    -11.28323331	    -13.69930859	      7.32324268	     -7.48587405
